<svg width="390" height="360" viewBox="0 0 390 360" fill="none" xmlns="http://www.w3.org/2000/svg">
<path d="M181.6 69.7998C181.067 70.3331 180.667 95.9331 180.667 126.6C180.667 157.266 180.267 182.333 179.733 182.333C179.2 182.333 166.133 169.666 150.667 154.333L122.667 126.333L114 135L105.333 143.666L143.067 181.4L180.667 219V289.4V359.8L192.4 359.4L204 359L204.4 288.333L204.667 217.666L241.6 180.733L278.667 143.666L270.667 135.666C266.267 131.266 262.267 127.666 261.6 127.666C260.933 127.666 248 140.066 232.8 155.266L205.333 183L204.667 126.333L204 69.6665L193.333 69.2665C187.333 69.1331 182.133 69.2665 181.6 69.7998Z" fill="black"/>
<path d="M48.9332 212.066L40.6665 220.333L74.6665 254.333L108.667 288.333V323.933V359.667H120.667H132.667V318.6V277.666L95.5998 240.6C75.3332 220.333 58.3998 203.666 57.9998 203.666C57.5998 203.666 53.4665 207.4 48.9332 212.066Z" fill="black"/>
<path d="M288.267 240.733L251.333 277.666V318.733V359.667H263.333H275.333V323.933V288.333L309.333 254.333L343.333 220.333L335.067 212.066C330.533 207.4 326.4 203.666 326 203.666C325.6 203.666 308.667 220.333 288.267 240.733Z" fill="black"/>
<path d="M64.0625 92.2666C67.9165 92.1789 71.7703 92.126 75.625 92.0791C76.711 92.054 77.7971 92.0288 78.916 92.0029C88.4936 91.9156 94.088 93.7598 101.203 100.31C107.623 107.066 110.175 114.207 110.105 123.501C110.096 125.121 110.096 125.121 110.087 126.773C110.079 127.596 110.071 128.419 110.062 129.267C106.271 129.414 102.481 129.501 98.6875 129.579C97.6266 129.621 96.5657 129.663 95.4727 129.706C87.1707 129.833 80.6177 128.182 74.2161 122.679C67.5174 115.938 64.0195 105.306 64 95.9541C64.0206 94.7372 64.0412 93.5204 64.0625 92.2666Z" fill="#65A83B"/>
<path d="M0.0625 169.267C3.91652 169.179 7.77028 169.126 11.625 169.079C12.711 169.054 13.7971 169.029 14.916 169.003C24.4936 168.916 30.088 170.76 37.2031 177.31C43.6226 184.066 46.1747 191.207 46.1055 200.501C46.0962 202.121 46.0962 202.121 46.0867 203.773C46.0787 204.596 46.0707 205.419 46.0625 206.267C42.2713 206.414 38.4808 206.501 34.6875 206.579C33.6266 206.621 32.5657 206.663 31.4727 206.706C23.1707 206.833 16.6177 205.182 10.2161 199.679C3.51736 192.938 0.0195217 182.306 0 172.954C0.020625 171.737 0.04125 170.52 0.0625 169.267Z" fill="#65A83B"/>
<path d="M320.044 92.2666C316.19 92.1789 312.337 92.126 308.482 92.0791C307.396 92.054 306.31 92.0288 305.191 92.0029C295.613 91.9156 290.019 93.7598 282.904 100.31C276.484 107.066 273.932 114.207 274.001 123.501C274.011 125.121 274.011 125.121 274.02 126.773C274.028 127.596 274.036 128.419 274.044 129.267C277.836 129.414 281.626 129.501 285.419 129.579C286.48 129.621 287.541 129.663 288.634 129.706C296.936 129.833 303.489 128.182 309.891 122.679C316.59 115.938 320.087 105.306 320.107 95.9541C320.086 94.7372 320.066 93.5204 320.044 92.2666Z" fill="#65A83B"/>
<path d="M389.044 169.267C385.19 169.179 381.337 169.126 377.482 169.079C376.396 169.054 375.31 169.029 374.191 169.003C364.613 168.916 359.019 170.76 351.904 177.31C345.484 184.066 342.932 191.207 343.001 200.501C343.011 202.121 343.011 202.121 343.02 203.773C343.028 204.596 343.036 205.419 343.044 206.267C346.836 206.414 350.626 206.501 354.419 206.579C355.48 206.621 356.541 206.663 357.634 206.706C365.936 206.833 372.489 205.182 378.891 199.679C385.59 192.938 389.087 182.306 389.107 172.954C389.086 171.737 389.066 170.52 389.044 169.267Z" fill="#65A83B"/>
<path d="M192.238 0.215654C194.719 3.16587 197.173 6.13767 199.623 9.114C200.323 9.94508 201.022 10.7762 201.743 11.6324C207.808 19.0458 209.872 24.5626 209.22 34.2114C207.971 43.4472 204.001 49.908 196.711 55.6731C195.442 56.6801 195.442 56.6801 194.147 57.7074C193.501 58.2163 192.854 58.7252 192.188 59.2495C189.699 56.3855 187.258 53.4847 184.822 50.5756C184.125 49.7747 183.429 48.9737 182.711 48.1484C177.413 41.7548 174.598 35.6113 174.881 27.1744C175.943 17.7305 182.043 8.34617 189.323 2.47568C190.285 1.72987 191.247 0.984063 192.238 0.215654Z" fill="#65A83B"/>
</svg>
